<svg width="19" height="19" viewBox="0 0 19 19" fill="none" xmlns="http://www.w3.org/2000/svg">
<path d="M9.92458 2.50119C11.4377 2.50119 12.6654 3.72884 12.6654 5.24199V5.34477C12.6654 5.79301 12.3028 6.15559 11.8546 6.15559H7.9946C7.54637 6.15559 7.18378 5.79301 7.18378 5.34477V5.24199C7.18378 3.72884 8.41143 2.50119 9.92458 2.50119ZM3.79775 5.51036C4.15463 5.15349 4.73419 5.15349 5.09107 5.51036L6.91827 7.33756C6.93825 7.35755 6.95538 7.37753 6.97251 7.39752C7.37792 7.1891 7.84043 7.07205 8.32864 7.07205H11.5234C12.0116 7.07205 12.4712 7.1891 12.8795 7.39752C12.8966 7.37753 12.9138 7.35755 12.9338 7.33756L14.761 5.51036C15.1178 5.15349 15.6974 5.15349 16.0543 5.51036C16.4111 5.86724 16.4111 6.4468 16.0543 6.80368L14.2271 8.63088C14.2071 8.65086 14.1871 8.66799 14.1671 8.68512C14.3441 9.02772 14.4555 9.40744 14.484 9.81285H16.3198C16.8251 9.81285 17.2334 10.2211 17.2334 10.7264C17.2334 11.2318 16.8251 11.64 16.3198 11.64H14.4926C14.4926 12.3424 14.3356 13.0047 14.0529 13.5986C14.1157 13.6357 14.1728 13.6814 14.2242 13.7356L16.0514 15.5628C16.4083 15.9197 16.4083 16.4993 16.0514 16.8561C15.6945 17.213 15.115 17.213 14.7581 16.8561L12.9566 15.0546C12.2571 15.677 11.3635 16.0881 10.3785 16.1852V9.35319C10.3785 9.10195 10.173 8.89639 9.92173 8.89639C9.67049 8.89639 9.46493 9.10195 9.46493 9.35319V16.1824C8.47995 16.0853 7.58634 15.6742 6.88686 15.0518L5.08821 16.8504C4.73134 17.2073 4.15177 17.2073 3.7949 16.8504C3.43802 16.4935 3.43802 15.914 3.7949 15.5571L5.6221 13.7299C5.67634 13.6757 5.73344 13.6328 5.7934 13.5929C5.51361 13.0019 5.35658 12.3395 5.35658 11.6372H3.52938C3.02405 11.6372 2.61578 11.2289 2.61578 10.7236C2.61578 10.2183 3.02405 9.80999 3.52938 9.80999H5.36515C5.39655 9.40744 5.5079 9.02487 5.68205 8.68227C5.66207 8.66514 5.64208 8.64801 5.6221 8.62802L3.7949 6.80082C3.43802 6.44395 3.43802 5.86438 3.7949 5.50751L3.79775 5.51036Z" fill="#222224"/>
</svg>
