<svg width="19" height="19" viewBox="0 0 19 19" fill="none" xmlns="http://www.w3.org/2000/svg">
<path fill-rule="evenodd" clip-rule="evenodd" d="M9.17661 15.4345C9.45441 15.477 9.73892 15.4991 10.0286 15.4991C13.1131 15.4991 15.6136 12.9986 15.6136 9.91408C15.6136 6.82954 13.1131 4.32905 10.0286 4.32905C9.82169 4.32905 9.61734 4.3403 9.41626 4.36223C10.9463 5.52144 11.958 7.52951 11.958 9.81252C11.958 12.2127 10.8398 14.309 9.17661 15.4345ZM9.92708 17.1238C13.965 17.1238 17.2384 13.8504 17.2384 9.81252C17.2384 5.7746 13.965 2.50122 9.92708 2.50122C5.88915 2.50122 2.61578 5.7746 2.61578 9.81252C2.61578 13.8504 5.88915 17.1238 9.92708 17.1238Z" fill="#F0F0F0"/>
</svg>
