<svg width="19" height="19" viewBox="0 0 19 19" fill="none" xmlns="http://www.w3.org/2000/svg">
<path fill-rule="evenodd" clip-rule="evenodd" d="M10.7631 9.78056C10.8623 9.72013 10.9463 9.59349 11.0141 9.45275C11.9065 9.81746 12.5336 10.6793 12.5336 11.6843C12.5336 13.0195 11.4269 14.1019 10.0617 14.1019C9.50132 14.1019 8.98448 13.9195 8.56987 13.6121C8.43387 13.5477 8.32197 13.4858 8.23041 13.4352C8.08838 13.3567 7.99525 13.3052 7.93693 13.3132C7.76646 13.3367 7.81595 13.4936 7.86093 13.6361C7.89146 13.7329 7.91994 13.823 7.87587 13.8602C7.82978 13.8992 7.68046 13.7568 7.50599 13.5905C7.26849 13.364 6.98438 13.0931 6.8504 13.1745C6.74448 13.2388 6.84732 13.4134 6.97321 13.627L6.98255 13.6428C7.03573 13.7331 7.09736 13.8251 7.15359 13.909C7.26792 14.0795 7.36 14.217 7.31393 14.2402C7.25824 14.2683 6.87022 14.0064 6.54324 13.6428C6.41704 13.5025 6.2948 13.3504 6.18119 13.2091V13.209C5.93252 12.8996 5.72535 12.6419 5.60905 12.6724C5.46915 12.7091 5.57498 12.9977 5.73049 13.2754C5.8032 13.4053 5.88874 13.5375 5.9628 13.652V13.652C6.07798 13.83 6.1654 13.9652 6.1337 13.9818C6.09091 14.0041 5.71447 13.6371 5.45878 13.1745C5.30692 12.8997 5.1794 12.5961 5.07616 12.3503C4.9642 12.0836 4.88081 11.8851 4.82589 11.8651C4.63509 11.7957 4.63509 12.1847 4.71162 12.7461C4.7216 12.8194 4.73646 12.8962 4.75477 12.9744C5.49687 15.3755 7.77654 17.1238 10.4737 17.1238C13.7728 17.1238 16.4473 14.5081 16.4473 11.2814C16.4473 8.21032 14.0246 5.69269 10.9464 5.45698C10.9503 5.31231 11.0258 5.02542 11.0258 5.02542C11.0258 5.02542 11.5692 3.71065 11.598 3.4297C11.5999 3.41105 11.6021 3.39079 11.6045 3.36921C11.6384 3.06564 11.7014 2.50122 11.2158 2.50122C10.9565 2.50122 10.8359 2.69413 10.698 2.91476V2.91477C10.645 2.99947 10.5895 3.08825 10.5226 3.17178C10.0409 3.77338 9.2308 4.52465 8.77148 4.92489C7.80062 5.77086 6.84809 6.46611 6.29255 6.87161L6.29252 6.87163C6.03985 7.05605 5.86932 7.18054 5.81654 7.23197C5.41882 7.6197 3.99277 10.192 3.99277 10.192C3.99277 10.192 3.5316 11.0172 3.69552 11.1846C3.85943 11.352 4.25472 11.3136 4.25472 11.3136C4.25472 11.3136 9.56515 10.0953 10.0406 9.99927C10.1686 9.9734 10.259 9.95846 10.3283 9.94701C10.5167 9.91591 10.5505 9.91031 10.7631 9.78056ZM7.00848 8.215C6.72343 8.48595 6.25068 9.13268 6.25068 9.13268C6.25068 9.13268 7.12929 9.1868 7.61318 8.72685C8.09709 8.26686 7.98623 7.48299 7.98623 7.48299C7.98623 7.48299 7.29351 7.94405 7.00848 8.215Z" fill="#222224"/>
</svg>
