<svg width="19" height="19" viewBox="0 0 19 19" fill="none" xmlns="http://www.w3.org/2000/svg">
<path d="M4.35657 9.81252L5.17052 3.30089C5.22764 2.84394 5.61605 2.50122 6.07872 2.50122H10.8939C11.3223 2.50122 11.6679 2.84679 11.6679 3.27519C11.6679 3.36658 11.6507 3.46083 11.6193 3.54651L10.297 7.07078H14.2754C14.8523 7.07078 15.3235 7.53916 15.3235 8.11893C15.3235 8.33027 15.2607 8.5359 15.1407 8.71011L9.65155 16.7354C9.48304 16.981 9.20601 17.1267 8.91185 17.1267H8.82903C8.38064 17.1267 8.01507 16.7611 8.01507 16.3127C8.01507 16.247 8.02364 16.1813 8.04078 16.1157L9.38309 10.7264H5.27048C4.76497 10.7264 4.35657 10.318 4.35657 9.81252Z" fill="#222224"/>
</svg>
