<svg width="19" height="19" viewBox="0 0 19 19" fill="none" xmlns="http://www.w3.org/2000/svg">
<path fill-rule="evenodd" clip-rule="evenodd" d="M4.50749 15.1161L7.41142 14.2741L9.91956 18.8601C9.92289 18.866 9.93138 18.866 9.93461 18.8601L12.4427 14.2741L15.3467 15.1161C15.3531 15.118 15.3592 15.112 15.3573 15.1054L14.5152 12.259L18.9747 9.81999C18.9807 9.81675 18.9807 9.80817 18.9747 9.80493L14.4784 7.34583L15.3573 4.37514C15.3592 4.36868 15.3531 4.36261 15.3467 4.36443L12.3746 5.22623L9.93461 0.764847C9.93138 0.758886 9.92279 0.758886 9.91956 0.764847L7.47952 5.22623L4.50749 4.36443C4.50102 4.36251 4.49496 4.36857 4.49688 4.37514L5.37577 7.34583L0.879471 9.80493C0.87351 9.80817 0.87351 9.81675 0.879471 9.81999L5.33899 12.259L4.49688 15.1054C4.49496 15.112 4.50102 15.118 4.50749 15.1161ZM6.76089 9.84383L8.81817 10.969L9.9433 13.0262C9.94654 13.0322 9.95512 13.0322 9.95836 13.0262L11.0835 10.969L13.1408 9.84383C13.1467 9.8406 13.1467 9.83201 13.1408 9.82878L11.0835 8.70366L9.95836 6.6464C9.95512 6.64044 9.94654 6.64044 9.9433 6.6464L8.81817 8.70366L6.76089 9.82878C6.75503 9.83201 6.75503 9.8405 6.76089 9.84383Z" fill="#222224"/>
</svg>
