<svg width="19" height="19" viewBox="0 0 19 19" fill="none" xmlns="http://www.w3.org/2000/svg">
<g clip-path="url(#clip0_444_119)">
<path d="M8.92613 2.50122C9.43164 2.50122 9.84004 2.90963 9.84004 3.41513V6.61383H8.01222V3.41513C8.01222 2.90963 8.42062 2.50122 8.92613 2.50122ZM5.27048 4.32905C5.27048 3.82354 5.67888 3.41513 6.18439 3.41513C6.6899 3.41513 7.0983 3.82354 7.0983 4.32905V6.61383H5.27048V4.32905ZM10.754 4.32905C10.754 3.82354 11.1624 3.41513 11.6679 3.41513C12.1734 3.41513 12.5818 3.82354 12.5818 4.32905V7.07078C12.5818 7.57629 12.1734 7.98469 11.6679 7.98469C11.1624 7.98469 10.754 7.57629 10.754 7.07078V4.32905ZM13.4957 6.15687C13.4957 5.65136 13.9041 5.24296 14.4096 5.24296C14.9151 5.24296 15.3235 5.65136 15.3235 6.15687V7.98469C15.3235 8.4902 14.9151 8.89861 14.4096 8.89861C13.9041 8.89861 13.4957 8.4902 13.4957 7.98469V6.15687ZM10.754 8.67013V8.65299C11.0224 8.80722 11.3337 8.89861 11.6679 8.89861C12.0449 8.89861 12.3933 8.78437 12.6846 8.59016C12.9331 9.3013 13.6128 9.81252 14.4096 9.81252C14.7438 9.81252 15.0551 9.72398 15.3235 9.5669V9.81252C15.3235 11.3062 14.6067 12.6342 13.4957 13.4682V16.2099C13.4957 16.7154 13.0873 17.1238 12.5818 17.1238H8.01222C7.50671 17.1238 7.0983 16.7154 7.0983 16.2099V13.9708C6.60422 13.7452 6.15012 13.4339 5.75885 13.0426L5.42756 12.7113C4.74212 12.0259 4.35657 11.0949 4.35657 10.1267V9.35556C4.35657 8.3474 5.17623 7.52774 6.18439 7.52774H8.69765C9.32882 7.52774 9.84004 8.03896 9.84004 8.67013C9.84004 9.3013 9.32882 9.81252 8.69765 9.81252H7.0983C6.84698 9.81252 6.64135 10.0181 6.64135 10.2695C6.64135 10.5208 6.84698 10.7264 7.0983 10.7264H8.69765C9.83433 10.7264 10.754 9.80681 10.754 8.67013Z" fill="#222224"/>
</g>
<defs>
<clipPath id="clip0_444_119">
<rect width="10.9669" height="14.6226" fill="white" transform="translate(4.35657 2.50122)"/>
</clipPath>
</defs>
</svg>
