<svg width="19" height="19" viewBox="0 0 19 19" fill="none" xmlns="http://www.w3.org/2000/svg">
<path d="M7.97244 2.65613C8.20063 2.44765 8.55461 2.45051 8.7828 2.65898C9.59023 3.39864 10.3479 4.19542 11.0559 5.05788C11.3777 4.64664 11.7434 4.19828 12.1383 3.83273C12.3695 3.6214 12.7264 3.6214 12.9575 3.83559C13.9697 4.77801 14.8269 6.02316 15.4295 7.20547C16.0234 8.37065 16.4183 9.56154 16.4183 10.4012C16.4183 14.0452 13.4987 17.1238 9.86523 17.1238C6.19082 17.1238 3.31213 14.0423 3.31213 10.3983C3.31213 9.30165 3.83287 7.96227 4.64031 6.63716C5.45652 5.29206 6.60916 3.88985 7.97244 2.65613ZM9.91496 14.3822C10.6551 14.3822 11.3104 14.1823 11.9277 13.7825C13.1593 12.9428 13.4899 11.2636 12.7498 9.94422C12.6678 9.78429 12.5859 9.62436 12.4631 9.46444L10.9828 11.1437C10.9828 11.1437 8.60142 8.18502 8.43467 7.98511C7.20596 9.46444 6.58868 10.3041 6.58868 11.2636C6.58868 13.2227 8.06898 14.3822 9.91496 14.3822Z" fill="#222224"/>
</svg>
