<svg width="19" height="19" viewBox="0 0 19 19" fill="none" xmlns="http://www.w3.org/2000/svg">
<path d="M10.465 8.65819L3.16536 15.9549C2.8968 16.2235 2.8968 16.6578 3.16536 16.9235C3.43392 17.1892 3.86818 17.192 4.13388 16.9235L6.27091 14.7864C6.48233 14.9179 6.70803 15.0207 6.95088 15.0864C8.23081 15.435 10.2221 15.4835 12.1649 14.195C12.5134 13.9636 12.3306 13.4694 11.9135 13.4694H11.4535C11.3078 13.4694 11.1907 13.3522 11.1907 13.2065C11.1907 13.0894 11.2678 12.9894 11.3764 12.9551L14.1676 12.118C14.2648 12.0894 14.3505 12.0294 14.4076 11.9437C14.5333 11.7609 14.6533 11.5752 14.7676 11.3838C14.9447 11.0895 14.7248 10.7267 14.3819 10.7267H13.2791C13.1334 10.7267 13.0163 10.6095 13.0163 10.4638C13.0163 10.3467 13.0934 10.2467 13.202 10.2124L15.5133 9.51814C15.6447 9.47815 15.7533 9.38101 15.8047 9.25244C16.6361 7.15541 17.0161 4.95839 17.1332 3.54989C17.1561 3.26705 17.0475 2.98992 16.8475 2.78993C16.6475 2.58994 16.3704 2.48137 16.0875 2.50423C13.6934 2.6985 9.03648 3.6556 6.43376 6.25832C4.14531 8.54677 4.12817 11.1352 4.54529 12.6808C4.60529 12.9065 4.88813 12.9551 5.05383 12.7894L9.75359 8.09251C9.93072 7.91537 10.2221 7.91537 10.3993 8.09251C10.5535 8.24678 10.5735 8.48106 10.4621 8.65819H10.465Z" fill="#222224"/>
</svg>
