<svg width="19" height="19" viewBox="0 0 19 19" fill="none" xmlns="http://www.w3.org/2000/svg">
<path fill-rule="evenodd" clip-rule="evenodd" d="M13.153 17.0732C11.834 17.1407 10.3239 17.1407 9.81079 17.0732C5.80791 16.5466 2.61578 13.6199 2.61578 9.66401C2.61578 5.70811 5.88916 2.50122 9.92708 2.50122C13.965 2.50122 17.2384 5.70811 17.2384 9.66401C17.2384 11.5039 16.5303 13.1817 15.3666 14.4503C15.0506 14.7947 15.4842 15.0363 15.9247 15.2818C16.3567 15.5226 16.7955 15.7671 16.5405 16.116C16.2595 16.5004 14.7363 16.9921 13.153 17.0732ZM8.89893 8.76866C8.89893 9.38675 8.38745 9.88783 7.75654 9.88783C7.12563 9.88783 6.61415 9.38675 6.61415 8.76866C6.61415 8.35411 6.8442 7.99223 7.18603 7.7988C7.20571 8.33775 7.64884 8.76863 8.19262 8.76863H8.89893V8.76866ZM12.4397 7.7988C12.42 8.33775 11.9768 8.76863 11.4331 8.76863H10.7268V8.76866C10.7268 9.38675 11.2382 9.88783 11.8691 9.88783C12.5001 9.88783 13.0115 9.38675 13.0115 8.76866C13.0115 8.35411 12.7815 7.99223 12.4397 7.7988Z" fill="#222224"/>
</svg>
