<svg width="19" height="19" viewBox="0 0 19 19" fill="none" xmlns="http://www.w3.org/2000/svg">
<path d="M10.4478 4.59224C7.88278 4.59224 5.71261 6.2729 4.97507 8.58993C6.07158 8.03515 7.30842 7.72512 8.62032 7.72512H11.4921C11.7793 7.72512 12.0143 7.96009 12.0143 8.24727C12.0143 8.53445 11.7793 8.76942 11.4921 8.76942H10.97H8.62032C8.07859 8.76942 7.55318 8.83143 7.04408 8.94565C6.19886 9.13819 5.41563 9.48085 4.714 9.94752C2.82121 11.2105 1.57132 13.3676 1.57132 15.8184V16.3406C1.57132 16.7746 1.92051 17.1238 2.35454 17.1238C2.78858 17.1238 3.13776 16.7746 3.13776 16.3406V15.8184C3.13776 14.2291 3.81329 12.7997 4.89349 11.7979C5.53964 14.2618 7.78162 16.0795 10.4478 16.0795H10.4805C14.7915 16.0566 18.2801 11.8077 18.2801 6.56987C18.2801 5.17965 18.0353 3.85797 17.5915 2.66682C17.5066 2.44164 17.177 2.45143 17.0628 2.66355C16.4493 3.81228 15.2353 4.59224 13.8418 4.59224H10.4478Z" fill="#222224"/>
</svg>
