<svg width="21" height="19" viewBox="0 0 21 19" fill="none" xmlns="http://www.w3.org/2000/svg">
<path fill-rule="evenodd" clip-rule="evenodd" d="M5.2726 17.0669C5.26713 17.0669 5.26331 17.0615 5.26512 17.0563L10.4144 2.5065C10.4155 2.50334 10.4185 2.50122 10.4218 2.50122H15.9188C15.9222 2.50122 15.9252 2.50335 15.9263 2.50653L20.9991 17.0564C21.0009 17.0615 20.9971 17.0669 20.9917 17.0669H5.42734H5.2726ZM0.838435 17.1238C0.832905 17.1238 0.829076 17.1183 0.831016 17.1131L4.6655 6.87604C4.66667 6.87292 4.66962 6.87088 4.67293 6.87088H8.00466C8.01017 6.87088 8.01399 6.87635 8.0121 6.88151L4.30426 17.1186C4.30313 17.1217 4.30015 17.1238 4.29681 17.1238H0.838435Z" fill="#222224"/>
</svg>
