<svg width="19" height="19" viewBox="0 0 19 19" fill="none" xmlns="http://www.w3.org/2000/svg">
<path d="M10.0591 2.50122C10.5646 2.50122 10.973 2.90963 10.973 3.41513V4.27478L11.4014 3.84639C11.6699 3.57792 12.104 3.57792 12.3696 3.84639C12.6352 4.11485 12.6381 4.54896 12.3696 4.81456L10.9702 6.21399V8.22174L12.7237 7.1993L13.2293 5.3115C13.3264 4.94594 13.7033 4.72888 14.0689 4.82599C14.4345 4.92309 14.6515 5.30008 14.5544 5.66564L14.4059 6.21685L15.0799 5.82272C15.5169 5.56854 16.0767 5.71705 16.3308 6.15116C16.585 6.58527 16.4365 7.14789 16.0024 7.40208L15.2798 7.82476L15.8996 7.99041C16.2652 8.08751 16.4822 8.4645 16.3851 8.83006C16.288 9.19563 15.911 9.41268 15.5454 9.31558L13.612 8.79865L11.8727 9.81252L13.612 10.8264L15.5454 10.3095C15.911 10.2124 16.288 10.4294 16.3851 10.795C16.4822 11.1605 16.2652 11.5375 15.8996 11.6346L15.2798 11.8003L16.0024 12.223C16.4394 12.4771 16.585 13.0369 16.3308 13.4739C16.0767 13.9108 15.5169 14.0565 15.0799 13.8023L14.4059 13.4082L14.5544 13.9594C14.6515 14.325 14.4345 14.702 14.0689 14.7991C13.7033 14.8962 13.3264 14.6791 13.2293 14.3135L12.7237 12.4257L10.973 11.4033V13.411L12.3725 14.8105C12.6409 15.0789 12.6409 15.513 12.3725 15.7787C12.104 16.0443 11.6699 16.0471 11.4043 15.7787L10.9759 15.3503V16.2099C10.9759 16.7154 10.5675 17.1238 10.062 17.1238C9.55647 17.1238 9.14806 16.7154 9.14806 16.2099V15.3503L8.71967 15.7787C8.4512 16.0471 8.0171 16.0471 7.75149 15.7787C7.48588 15.5102 7.48303 15.0761 7.75149 14.8105L9.15092 13.411V11.4033L7.39735 12.4257L6.89184 14.3135C6.79474 14.6791 6.41775 14.8962 6.05218 14.7991C5.68662 14.702 5.46957 14.325 5.56667 13.9594L5.71518 13.4082L5.03546 13.7995C4.59849 14.0536 4.03872 13.9051 3.78454 13.471C3.53036 13.0369 3.67887 12.4743 4.11298 12.2201L4.83554 11.7974L4.21579 11.6318C3.85023 11.5347 3.63317 11.1577 3.73028 10.7921C3.82738 10.4266 4.20437 10.2095 4.56993 10.3066L6.50343 10.8235L8.24557 9.81252L6.50628 8.79865L4.57279 9.31558C4.20722 9.41268 3.83023 9.19563 3.73313 8.83006C3.63603 8.4645 3.85308 8.08751 4.21865 7.99041L4.83839 7.82476L4.11583 7.40208C3.67887 7.14789 3.53321 6.58812 3.78739 6.15401C4.04158 5.71991 4.60135 5.57139 5.03831 5.82558L5.71232 6.2197L5.56381 5.6685C5.46671 5.30293 5.68376 4.92594 6.04933 4.82884C6.41489 4.73174 6.79188 4.94879 6.88899 5.31436L7.39449 7.20216L9.14521 8.22174V6.21113L7.74578 4.81456C7.47732 4.5461 7.47732 4.11199 7.74578 3.84639C8.01424 3.58078 8.44835 3.57792 8.71395 3.84639L9.14235 4.27478V3.41513C9.14235 2.90963 9.55076 2.50122 10.0563 2.50122H10.0591Z" fill="#222224"/>
</svg>
