<svg width="19" height="19" viewBox="0 0 19 19" fill="none" xmlns="http://www.w3.org/2000/svg">
<path d="M17.2384 9.81252C17.2384 13.8509 13.9654 17.1238 9.92708 17.1238C5.88873 17.1238 2.61578 13.8509 2.61578 9.81252C2.61578 5.77417 5.88873 2.50122 9.92708 2.50122C13.9654 2.50122 17.2384 5.77417 17.2384 9.81252ZM9.92708 3.87209C6.64557 3.87209 3.98665 6.531 3.98665 9.81252C3.98665 13.094 6.64557 15.7529 9.92708 15.7529C13.2086 15.7529 15.8675 13.094 15.8675 9.81252C15.8675 6.531 13.2086 3.87209 9.92708 3.87209Z" fill="#222224"/>
<path d="M16.3431 9.81252C16.3431 13.3564 13.4709 16.2286 9.92708 16.2286C6.38322 16.2286 3.51104 13.3564 3.51104 9.81252C3.51104 6.26866 6.38322 3.39648 9.92708 3.39648C13.4709 3.39648 16.3431 6.26866 16.3431 9.81252ZM9.92708 4.59949C7.04738 4.59949 4.71405 6.93282 4.71405 9.81252C4.71405 12.6922 7.04738 15.0255 9.92708 15.0255C12.8068 15.0255 15.1401 12.6922 15.1401 9.81252C15.1401 6.93282 12.8068 4.59949 9.92708 4.59949Z" fill="#222224"/>
<path d="M16.1939 9.81252C16.1939 13.274 13.3885 16.0793 9.92708 16.0793C6.46564 16.0793 3.66025 13.274 3.66025 9.81252C3.66025 6.35108 6.46564 3.54569 9.92708 3.54569C13.3885 3.54569 16.1939 6.35108 16.1939 9.81252ZM9.92708 4.72072C7.11435 4.72072 4.83529 6.99979 4.83529 9.81252C4.83529 12.6252 7.11435 14.9043 9.92708 14.9043C12.7398 14.9043 15.0189 12.6252 15.0189 9.81252C15.0189 6.99979 12.7398 4.72072 9.92708 4.72072Z" fill="#222224"/>
<path d="M15.4265 9.81252C15.4265 12.8501 12.9647 15.312 9.92708 15.312C6.88949 15.312 4.42762 12.8501 4.42762 9.81252C4.42762 6.77493 6.88949 4.31306 9.92708 4.31306C12.9647 4.31306 15.4265 6.77493 15.4265 9.81252ZM9.92708 5.34421C7.45877 5.34421 5.45877 7.34421 5.45877 9.81252C5.45877 12.2808 7.45877 14.2808 9.92708 14.2808C12.3954 14.2808 14.3954 12.2808 14.3954 9.81252C14.3954 7.34421 12.3954 5.34421 9.92708 5.34421Z" fill="#222224"/>
</svg>
