<svg width="19" height="19" viewBox="0 0 19 19" fill="none" xmlns="http://www.w3.org/2000/svg">
<path d="M13.6076 6.15695C13.6076 7.42504 12.8822 8.54176 11.7797 9.1958V9.81271C11.7797 10.3182 11.3713 10.7266 10.8658 10.7266H8.12398C7.61845 10.7266 7.21004 10.3182 7.21004 9.81271V9.1958C6.1076 8.5389 5.38216 7.42218 5.38216 6.15695C5.38216 4.13771 7.22432 2.50119 9.49489 2.50119C11.7655 2.50119 13.6076 4.13771 13.6076 6.15695ZM7.89549 7.52786C8.40102 7.52786 8.80943 7.11944 8.80943 6.61392C8.80943 6.1084 8.40102 5.69998 7.89549 5.69998C7.38997 5.69998 6.98155 6.1084 6.98155 6.61392C6.98155 7.11944 7.38997 7.52786 7.89549 7.52786ZM12.0082 6.61392C12.0082 6.1084 11.5998 5.69998 11.0943 5.69998C10.5888 5.69998 10.1803 6.1084 10.1803 6.61392C10.1803 7.11944 10.5888 7.52786 11.0943 7.52786C11.5998 7.52786 12.0082 7.11944 12.0082 6.61392ZM3.19442 10.3182C3.42004 9.86697 3.96841 9.68418 4.41967 9.90981L9.49489 12.446L14.5701 9.90981C15.0214 9.68418 15.5697 9.86697 15.7954 10.3182C16.021 10.7695 15.8382 11.3179 15.3869 11.5435L11.5398 13.4685L15.3898 15.3935C15.8411 15.6191 16.0238 16.1674 15.7982 16.6187C15.5726 17.07 15.0242 17.2527 14.573 17.0271L9.49489 14.4909L4.41967 17.0271C3.96841 17.2527 3.42004 17.07 3.19442 16.6187C2.96879 16.1674 3.15157 15.6191 3.60283 15.3935L7.44995 13.4685L3.60283 11.5435C3.15157 11.3179 2.96879 10.7695 3.19442 10.3182V10.3182Z" fill="#222224"/>
</svg>
