<svg width="20" height="19" viewBox="0 0 20 19" fill="none" xmlns="http://www.w3.org/2000/svg">
<path d="M9.92628 2.50122C7.28899 2.50122 5.1772 3.70236 3.63987 5.13198C2.11233 6.54855 1.09071 8.24581 0.607639 9.41105C0.499928 9.6689 0.499928 9.95613 0.607639 10.214C1.09071 11.3792 2.11233 13.0765 3.63987 14.4931C5.1772 15.9227 7.28899 17.1238 9.92628 17.1238C12.5636 17.1238 14.6754 15.9227 16.2127 14.4931C17.7402 13.0732 18.7619 11.3792 19.2482 10.214C19.3559 9.95613 19.3559 9.6689 19.2482 9.41105C18.7619 8.24581 17.7402 6.54855 16.2127 5.13198C14.6754 3.70236 12.5636 2.50122 9.92628 2.50122ZM14.6264 9.81252C14.6264 12.4074 12.5211 14.5126 9.92628 14.5126C7.33142 14.5126 5.22616 12.4074 5.22616 9.81252C5.22616 7.21766 7.33142 5.1124 9.92628 5.1124C12.5211 5.1124 14.6264 7.21766 14.6264 9.81252ZM9.92628 7.72358C9.92628 8.87576 8.98952 9.81252 7.83734 9.81252C7.46198 9.81252 7.10947 9.7146 6.80592 9.53835C6.7994 9.62974 6.79287 9.71786 6.79287 9.81252C6.79287 11.5424 8.19638 12.9459 9.92628 12.9459C11.6562 12.9459 13.0597 11.5424 13.0597 9.81252C13.0597 8.08261 11.6562 6.67911 9.92628 6.67911C9.83489 6.67911 9.7435 6.68237 9.65211 6.69216C9.8251 6.99571 9.92628 7.34822 9.92628 7.72358Z" fill="#222224"/>
</svg>
