<svg width="19" height="19" viewBox="0 0 19 19" fill="none" xmlns="http://www.w3.org/2000/svg">
<path d="M8.91059 4.69111L9.73294 6.15306C9.81822 6.30535 9.98269 6.40281 10.1563 6.40281H11.7797C11.9563 6.40281 12.1178 6.3084 12.203 6.15306L13.0254 4.69111C13.1076 4.54187 13.1076 4.36217 13.0254 4.21293L12.203 2.75097C12.1178 2.59868 11.9533 2.50122 11.7797 2.50122H10.1593C9.98269 2.50122 9.82127 2.59564 9.73599 2.75097L8.91364 4.21293C8.8314 4.36217 8.8314 4.54187 8.91364 4.69111H8.91059ZM3.30338 4.17942C2.53586 3.4119 1.22314 3.95708 1.22314 5.04137V14.6872C1.22314 16.0334 2.31352 17.1238 3.65974 17.1238H13.3056C14.3899 17.1238 14.9351 15.8111 14.1675 15.0436L3.30338 4.17942ZM16.5798 13.8222C16.729 13.9045 16.9087 13.9045 17.0579 13.8222L18.5199 12.9999C18.6722 12.9146 18.7696 12.7501 18.7696 12.5765V10.9531C18.7696 10.7765 18.6752 10.6151 18.5199 10.5298L17.0579 9.70744C16.9087 9.62521 16.729 9.62521 16.5798 9.70744L15.1178 10.5298C14.9655 10.6151 14.8681 10.7795 14.8681 10.9531V12.5765C14.8681 12.7532 14.9625 12.9146 15.1178 12.9999L16.5798 13.8222V13.8222ZM7.07096 3.4789C7.07096 2.93981 6.63542 2.50427 6.09633 2.50427C5.55723 2.50427 5.12169 2.93981 5.12169 3.4789C5.12169 4.018 5.55723 4.45354 6.09633 4.45354C6.63542 4.45354 7.07096 4.018 7.07096 3.4789ZM12.9188 10.3014C13.4579 10.3014 13.8934 9.86582 13.8934 9.32672C13.8934 8.78763 13.4579 8.35209 12.9188 8.35209C12.3797 8.35209 11.9441 8.78763 11.9441 9.32672C11.9441 9.86582 12.3797 10.3014 12.9188 10.3014Z" fill="#222224"/>
</svg>
