<svg width="19" height="19" viewBox="0 0 19 19" fill="none" xmlns="http://www.w3.org/2000/svg">
<path fill-rule="evenodd" clip-rule="evenodd" d="M1.57301 9.82288C1.57075 9.81903 1.57075 9.81425 1.57301 9.81036L5.8474 2.50734C5.84963 2.50355 5.85371 2.50122 5.8581 2.50122H14.3302C14.3346 2.50122 14.3387 2.50357 14.3409 2.50739L18.5684 9.81043C18.5706 9.81425 18.5706 9.81899 18.5684 9.82281L14.3409 17.1176C14.3387 17.1215 14.3346 17.1238 14.3302 17.1238H5.8581C5.85371 17.1238 5.84963 17.1215 5.8474 17.1177L1.57301 9.82288ZM14.0089 9.81252C14.0089 11.9868 12.2463 13.7494 10.072 13.7494C7.89778 13.7494 6.13519 11.9868 6.13519 9.81252C6.13519 7.63824 7.89778 5.87568 10.072 5.87568C12.2463 5.87568 14.0089 7.63824 14.0089 9.81252Z" fill="#222224"/>
</svg>
