<svg width="19" height="19" viewBox="0 0 19 19" fill="none" xmlns="http://www.w3.org/2000/svg">
<path d="M9.95721 17.1238C12.858 17.1238 15.2097 14.7721 15.2097 11.8713C15.2097 9.65991 12.1567 4.9894 10.7063 2.89736C10.3392 2.36913 9.5782 2.36913 9.21112 2.89736C7.75774 4.9894 4.70474 9.65991 4.70474 11.8713C4.70474 14.7721 7.05641 17.1238 9.95721 17.1238ZM7.56972 11.8713C7.56972 13.1904 8.63812 14.2588 9.95721 14.2588C10.2198 14.2588 10.4347 14.4737 10.4347 14.7363C10.4347 14.9989 10.2198 15.2138 9.95721 15.2138C8.10989 15.2138 6.61473 13.7186 6.61473 11.8713C6.61473 11.6087 6.8296 11.3938 7.09223 11.3938C7.35485 11.3938 7.56972 11.6087 7.56972 11.8713Z" fill="#222224"/>
</svg>
