<svg width="182" height="48" viewBox="0 0 182 48" fill="none" xmlns="http://www.w3.org/2000/svg">
<path d="M0.428719 10.5516C1.97445 10.0407 3.42437 9.568 4.77848 9.13366C6.14537 8.69933 7.58252 8.29054 9.08992 7.9073C10.5973 7.51128 12.0409 7.19831 13.4205 6.96836C14.4808 6.78952 15.5667 6.70009 16.6781 6.70009C18.5304 6.70009 19.744 6.75119 20.3188 6.85339C21.1875 7.01946 22.0051 7.28773 22.7716 7.65819C23.5508 8.02866 24.2406 8.52687 24.8411 9.15283C25.4542 9.76601 25.9524 10.4942 26.3357 11.3373C26.489 11.6822 26.5656 12.0463 26.5656 12.4295C26.5656 13.8603 25.78 15.6232 24.2087 17.7182C22.6502 19.8133 21.0789 21.64 19.4949 23.1985C17.9236 24.757 16.7483 25.8748 15.9691 26.5519L19.4182 38.6431L14.3978 42.2647L5.60245 17.1434C5.5769 17.1434 5.45554 17.2647 5.23837 17.5074C5.0212 17.7502 4.73377 18.0695 4.37608 18.4655C4.03117 18.8488 3.814 19.0851 3.72458 19.1745C3.68625 19.1745 3.55851 18.8999 3.34134 18.3506C3.13694 17.8013 2.8559 17.0412 2.49821 16.0703C2.1533 15.0866 1.76367 14.0008 1.32933 12.8128C0.882219 11.6119 0.582015 10.8582 0.428719 10.5516ZM12.8265 15.8787L14.3978 21.5315C15.1898 20.7266 16.1735 19.628 17.3487 18.2356C18.524 16.8432 19.1116 15.834 19.1116 15.208C19.1116 14.9653 19.0094 14.8248 18.805 14.7864C18.2302 14.6587 17.6617 14.5948 17.0996 14.5948C15.4134 14.5948 13.989 15.0228 12.8265 15.8787ZM45.6655 20.2476C46.5725 20.733 47.307 21.3909 47.8691 22.2213C48.444 23.0389 48.8592 23.965 49.1147 24.9998C49.3829 26.0217 49.5171 27.0884 49.5171 28.1998C49.5171 29.1196 49.4404 30.0074 49.2871 30.8633C49.1466 31.7192 48.9486 32.5049 48.6931 33.2202C48.4376 33.9356 48.1374 34.5424 47.7925 35.0406C46.9877 36.2414 46.1254 37.2762 45.2056 38.1449C44.2858 39.0135 43.3469 39.7161 42.3888 40.2527C41.4307 40.7764 40.479 41.1597 39.5337 41.4024C38.6011 41.6579 37.675 41.7856 36.7552 41.7856C35.6693 41.7856 34.6346 41.6132 33.651 41.2683C32.6801 40.9361 31.8497 40.4954 31.1599 39.9461C30.023 39.0008 29.1351 37.7297 28.4964 36.1329C27.8577 34.5233 27.5383 32.8242 27.5383 31.0358C27.5383 27.9571 28.4261 25.4724 30.2018 23.5818C31.722 21.9594 33.2933 20.7394 34.9156 19.9218C36.538 19.0915 38.1987 18.6763 39.8978 18.6763C40.8942 18.6763 41.8523 18.8041 42.772 19.0596C43.6918 19.3023 44.6563 19.6983 45.6655 20.2476ZM44.5349 23.4668C44.3178 24.4377 43.8451 25.2936 43.117 26.0345C42.4016 26.7754 41.699 27.1459 41.0091 27.1459C40.6642 27.1459 40.3576 27.0565 40.0894 26.8776C39.7061 26.571 39.5145 26.0345 39.5145 25.268C39.5145 24.6804 39.7061 24.0992 40.0894 23.5243C40.4854 22.9494 41.105 22.4959 41.9481 22.1638C41.105 22.1638 40.2874 22.3235 39.4954 22.6428C38.7161 22.9622 38.0454 23.3774 37.4833 23.8884C36.9213 24.3866 36.4678 24.9551 36.1228 25.5938C35.7907 26.2197 35.6246 26.8521 35.6246 27.4908C35.6246 28.6789 36.1739 29.6242 37.2726 30.3268C38.2945 30.9783 39.2654 31.304 40.1852 31.304C41.0922 31.304 41.897 31.0038 42.5996 30.4034C43.3022 29.7903 43.8387 29.011 44.2092 28.0657C44.5797 27.1076 44.7649 26.1623 44.7649 25.2297C44.7649 24.591 44.6882 24.0033 44.5349 23.4668ZM51.0454 8.98037L60.7797 4.89887L62.1977 27.0309L70.2074 22.6428L78.5237 23.8884L67.678 32.2047L77.8913 39.9078L78.3512 47.5917L63.2899 36.7652L63.769 46.1737L54.6479 46.3462L52.9233 13.0619L50.1065 13.6942L51.0454 8.98037ZM96.5696 30.4034L101.188 35.9796C100.817 37.0526 99.9357 38.0363 98.5433 38.9305C97.1637 39.8247 95.5157 40.5273 93.5995 41.0383C91.6961 41.5621 89.7927 41.824 87.8893 41.824C86.203 41.824 84.6956 41.6004 83.367 41.1533C82.0513 40.7062 81.0357 40.0291 80.3203 39.1221C79.0812 37.5636 78.4616 35.5708 78.4616 33.1436C78.4616 31.2274 78.8065 29.3431 79.4963 27.4908C80.1989 25.6257 80.9399 24.3227 81.7191 23.5818C82.6517 22.7003 83.6609 21.9658 84.7467 21.3782C85.8453 20.7905 86.9823 20.3498 88.1575 20.056C89.3328 19.7622 90.54 19.6153 91.7791 19.6153C93.4015 19.6153 94.9409 19.8771 96.3972 20.4009C97.8663 20.9119 99.1501 21.6592 100.249 22.6428L89.7288 35.1939C90.6614 35.1939 91.5428 35.0023 92.3732 34.6191C93.2163 34.2231 93.9892 33.6674 94.6918 32.952C95.3944 32.2238 96.0203 31.3743 96.5696 30.4034ZM91.2618 25.9387C90.6358 25.6193 89.9971 25.4597 89.3456 25.4597C88.6557 25.4597 87.9851 25.6002 87.3336 25.8812C86.6948 26.1623 86.2413 26.4944 85.9731 26.8776C85.181 27.8996 84.785 29.0238 84.785 30.2501C84.785 30.6973 84.8297 31.1252 84.9192 31.534C85.0086 31.9428 85.1619 32.5049 85.379 33.2202L91.2618 25.9387ZM115.957 22.2404C115.254 22.3299 114.558 22.5534 113.868 22.9111C113.191 23.2688 112.61 23.6904 112.125 24.1758C111.639 24.6612 111.256 25.1978 110.975 25.7854C110.707 26.3603 110.572 26.9287 110.572 27.4908C110.572 28.6533 111.122 29.5986 112.22 30.3268C113.191 30.9783 114.175 31.304 115.171 31.304C115.363 31.304 115.625 31.2785 115.957 31.2274V27.1459C115.612 27.1459 115.305 27.0565 115.037 26.8776C114.654 26.571 114.462 25.9834 114.462 25.1147C114.462 23.8628 114.961 22.9047 115.957 22.2404ZM115.784 3.63418L123.794 0.0317333L124.273 25.977C124.375 26.6413 124.427 27.395 124.427 28.2381C124.427 28.9791 124.401 29.5284 124.35 29.8861L124.58 41.6323L115.957 42.0922V40.9234C114.552 41.4982 113.134 41.7856 111.703 41.7856C110.604 41.7856 109.57 41.6196 108.599 41.2874C107.641 40.9553 106.81 40.5082 106.108 39.9461C104.971 39.0008 104.083 37.7297 103.444 36.1329C102.805 34.5233 102.486 32.8242 102.486 31.0358C102.486 27.9571 103.374 25.4724 105.15 23.5818C106.683 21.9722 108.26 20.7522 109.883 19.9218C111.518 19.0915 113.185 18.6763 114.884 18.6763C115.357 18.6763 115.714 18.6891 115.957 18.7146L115.784 3.63418ZM145.232 30.4034L149.85 35.9796C149.479 37.0526 148.598 38.0363 147.205 38.9305C145.826 39.8247 144.178 40.5273 142.262 41.0383C140.358 41.5621 138.455 41.824 136.551 41.824C134.865 41.824 133.358 41.6004 132.029 41.1533C130.713 40.7062 129.698 40.0291 128.982 39.1221C127.743 37.5636 127.124 35.5708 127.124 33.1436C127.124 31.2274 127.469 29.3431 128.158 27.4908C128.861 25.6257 129.602 24.3227 130.381 23.5818C131.314 22.7003 132.323 21.9658 133.409 21.3782C134.507 20.7905 135.644 20.3498 136.82 20.056C137.995 19.7622 139.202 19.6153 140.441 19.6153C142.064 19.6153 143.603 19.8771 145.059 20.4009C146.528 20.9119 147.812 21.6592 148.911 22.6428L138.391 35.1939C139.324 35.1939 140.205 35.0023 141.035 34.6191C141.878 34.2231 142.651 33.6674 143.354 32.952C144.057 32.2238 144.682 31.3743 145.232 30.4034ZM139.924 25.9387C139.298 25.6193 138.659 25.4597 138.008 25.4597C137.318 25.4597 136.647 25.6002 135.996 25.8812C135.357 26.1623 134.904 26.4944 134.635 26.8776C133.843 27.8996 133.447 29.0238 133.447 30.2501C133.447 30.6973 133.492 31.1252 133.581 31.534C133.671 31.9428 133.824 32.5049 134.041 33.2202L139.924 25.9387ZM165.635 37.3592L160.997 43.3569L151.11 43.6635L160.691 30.9975L149.864 16.9901L160.365 17.45L165.635 24.4057L170.885 17.45L181.405 16.9901L170.578 30.9975L180.159 43.6635L170.253 43.3569L165.635 37.3592Z" fill="#222224"/>
</svg>
