<svg width="75" height="75" viewBox="0 0 75 75" fill="none" xmlns="http://www.w3.org/2000/svg">
<path d="M37.4926 49.779C31.5884 49.779 26.6633 45.5908 25.4942 40.0261H5.85229C7.24067 56.2077 20.7883 68.904 37.288 68.904C53.7878 68.904 67.35 56.2077 68.7238 40.0261H49.4911C48.322 45.6054 43.3969 49.779 37.4926 49.779Z" fill="white"/>
<path d="M44.5076 68.084C57.6021 65.0087 67.5546 53.7768 68.7238 40.0261H60.9781C60.2035 52.5027 53.6708 63.0757 44.5076 68.084Z" fill="#DFDFDF"/>
<path d="M44.7268 37.4927C44.7122 37.4927 44.7122 37.4927 44.7268 37.4927C44.7122 36.5994 44.5514 35.75 44.2591 34.9593C43.2361 32.2062 40.5909 30.2585 37.4926 30.2585C34.3944 30.2585 31.7491 32.2208 30.7261 34.9593C30.4338 35.75 30.2731 36.5994 30.2731 37.4927H30.2877C30.2877 38.386 30.4484 39.2353 30.7407 40.0261C31.7637 42.7792 34.409 44.7268 37.5072 44.7268C40.6055 44.7268 43.2507 42.7645 44.2737 40.0261C44.566 39.25 44.7268 38.386 44.7268 37.4927Z" fill="white"/>
<path d="M37.5072 25.221C43.4115 25.221 48.3366 29.4092 49.5057 34.9739H69.1476C67.7592 18.7776 54.2116 6.0813 37.6972 6.0813C21.1829 6.0813 7.64985 18.7776 6.26147 34.9593H25.5087C26.6779 29.3945 31.603 25.221 37.5072 25.221Z" fill="#FF1C1C"/>
<path d="M60.9781 34.9593H69.133C67.9346 20.9743 57.646 9.58124 44.2153 6.75494C53.5394 11.69 60.189 22.3654 60.9781 34.9593Z" fill="#DF1818"/>
<path d="M37.6972 6.0813C54.2116 6.0813 67.7592 18.7777 69.133 34.9593H49.4911C48.322 29.3946 43.3969 25.2064 37.4926 25.2064C31.5884 25.2064 26.6633 29.3946 25.4942 34.9593H6.2615C7.64987 18.7777 21.1975 6.0813 37.6972 6.0813ZM44.2591 34.9593C44.5514 35.75 44.7122 36.5994 44.7122 37.4927H44.7268C44.7268 38.386 44.5661 39.2353 44.2738 40.0261C43.2507 42.7792 40.6055 44.7268 37.5073 44.7268C34.409 44.7268 31.7638 42.7645 30.7407 40.0261C30.4485 39.2353 30.2877 38.386 30.2877 37.4927H30.2731C30.2731 36.5994 30.4338 35.75 30.7261 34.9593C31.7491 32.2062 34.3944 30.2585 37.4926 30.2585C40.5909 30.2585 43.2361 32.2208 44.2591 34.9593ZM37.288 68.9187C20.7737 68.9187 7.22605 56.2224 5.85229 40.0407H25.4942C26.6633 45.6055 31.5884 49.7936 37.4926 49.7936C43.3969 49.7936 48.322 45.6055 49.4911 40.0407H68.7384C67.35 56.2077 53.8024 68.9187 37.288 68.9187ZM37.4926 0.0479736C16.857 0.0479736 0.123413 16.8154 0.123413 37.4927C0.123413 58.17 16.857 74.9374 37.4926 74.9374C58.1283 74.9374 74.8765 58.1847 74.8765 37.4927C74.8765 16.8007 58.1429 0.0479736 37.4926 0.0479736Z" fill="black"/>
</svg>
