<svg width="30" height="30" viewBox="0 0 30 30" fill="none" xmlns="http://www.w3.org/2000/svg">
<g clip-path="url(#clip0_542_1712)">
<path d="M24.5625 12.7812C24.5625 15.3811 23.7186 17.7826 22.2969 19.7311L29.4676 26.9074C30.1756 27.6154 30.1756 28.7652 29.4676 29.4732C28.7596 30.1813 27.6098 30.1813 26.9018 29.4732L19.7311 22.2969C17.7826 23.7242 15.3811 24.5625 12.7812 24.5625C6.27324 24.5625 1 19.2893 1 12.7812C1 6.27324 6.27324 1 12.7812 1C19.2893 1 24.5625 6.27324 24.5625 12.7812ZM12.7812 20.9375C17.2842 20.9375 20.9375 17.2842 20.9375 12.7812C20.9375 8.27832 17.2842 4.625 12.7812 4.625C8.27832 4.625 4.625 8.27832 4.625 12.7812C4.625 17.2842 8.27832 20.9375 12.7812 20.9375Z" fill="#F0F0F0"/>
</g>
<path d="M12.7948 16.5275C10.967 16.5275 9.44241 15.231 9.08047 13.5083H3C3.4298 18.5176 7.62369 22.448 12.7315 22.448C17.8393 22.448 22.0377 18.5176 22.4629 13.5083H16.5091C16.1472 15.2355 14.6226 16.5275 12.7948 16.5275Z" fill="white"/>
<path d="M14.9664 22.1941C19.0201 21.2421 22.101 17.7651 22.463 13.5083H20.0651C19.8254 17.3707 17.8031 20.6437 14.9664 22.1941Z" fill="#DFDFDF"/>
<path d="M15.0343 12.7241C15.0297 12.7241 15.0297 12.7241 15.0343 12.7241C15.0297 12.4475 14.98 12.1846 14.8895 11.9398C14.5728 11.0875 13.7539 10.4846 12.7948 10.4846C11.8357 10.4846 11.0168 11.0921 10.7001 11.9398C10.6096 12.1846 10.5599 12.4475 10.5599 12.7241H10.5644C10.5644 13.0006 10.6142 13.2635 10.7046 13.5083C11.0213 14.3606 11.8402 14.9635 12.7993 14.9635C13.7584 14.9635 14.5773 14.3561 14.894 13.5083C14.9845 13.2681 15.0343 13.0006 15.0343 12.7241Z" fill="white"/>
<path d="M12.7993 8.92502C14.6271 8.92502 16.1517 10.2215 16.5137 11.9442H22.5941C22.1644 6.93037 17.9705 3 12.8582 3C7.74585 3 3.55647 6.93037 3.12668 11.9397H9.085C9.44693 10.217 10.9716 8.92502 12.7993 8.92502Z" fill="#FF1C1C"/>
<path d="M20.0651 11.9396H22.5896C22.2186 7.61033 19.0336 4.08342 14.8759 3.2085C17.7623 4.73622 19.8208 8.04099 20.0651 11.9396Z" fill="#DF1818"/>
<defs>
<clipPath id="clip0_542_1712">
<rect width="29" height="29" fill="white" transform="translate(1 1)"/>
</clipPath>
</defs>
</svg>
