<svg width="30" height="30" viewBox="0 0 30 30" fill="none" xmlns="http://www.w3.org/2000/svg">
<g clip-path="url(#clip0_540_1710)">
<path d="M24.5625 12.7812C24.5625 15.3811 23.7186 17.7826 22.2969 19.7311L29.4676 26.9074C30.1756 27.6154 30.1756 28.7652 29.4676 29.4732C28.7596 30.1813 27.6098 30.1813 26.9018 29.4732L19.7311 22.2969C17.7826 23.7242 15.3811 24.5625 12.7812 24.5625C6.27324 24.5625 1 19.2893 1 12.7812C1 6.27324 6.27324 1 12.7812 1C19.2893 1 24.5625 6.27324 24.5625 12.7812ZM12.7812 20.9375C17.2842 20.9375 20.9375 17.2842 20.9375 12.7812C20.9375 8.27832 17.2842 4.625 12.7812 4.625C8.27832 4.625 4.625 8.27832 4.625 12.7812C4.625 17.2842 8.27832 20.9375 12.7812 20.9375Z" fill="#222224"/>
</g>
<path d="M12.3777 15.8572C10.7001 15.8572 9.30068 14.6681 8.96847 13.0882H3.38742C3.78191 17.6824 7.63134 21.2871 12.3196 21.2871C17.0078 21.2871 20.8614 17.6824 21.2518 13.0882H15.787C15.4548 14.6723 14.0554 15.8572 12.3777 15.8572Z" fill="white"/>
<path d="M14.371 21.0542C18.0917 20.1811 20.9196 16.9922 21.2518 13.0882H19.0509C18.8308 16.6305 16.9746 19.6323 14.371 21.0542Z" fill="#DFDFDF"/>
<path d="M14.4332 12.369C14.4291 12.369 14.4291 12.369 14.4332 12.369C14.4291 12.1153 14.3834 11.8742 14.3004 11.6497C14.0097 10.8681 13.2581 10.3151 12.3777 10.3151C11.4974 10.3151 10.7458 10.8722 10.4551 11.6497C10.372 11.8742 10.3264 12.1153 10.3264 12.369H10.3305C10.3305 12.6226 10.3762 12.8637 10.4592 13.0882C10.7499 13.8699 11.5015 14.4228 12.3819 14.4228C13.2622 14.4228 14.0138 13.8657 14.3045 13.0882C14.3876 12.8679 14.4332 12.6226 14.4332 12.369Z" fill="white"/>
<path d="M12.3819 8.88489C14.0595 8.88489 15.4589 10.074 15.7911 11.6539H21.3722C20.9777 7.05554 17.1283 3.45088 12.4359 3.45088C7.74346 3.45088 3.89819 7.05554 3.50369 11.6497H8.97263C9.30483 10.0698 10.7042 8.88489 12.3819 8.88489Z" fill="#FF1C1C"/>
<path d="M19.0509 11.6499H21.3681C21.0276 7.67934 18.1041 4.44471 14.2879 3.64229C16.9373 5.04341 18.8267 8.07431 19.0509 11.6499Z" fill="#DF1818"/>
<path d="M12.4359 3.45087C17.1283 3.45087 20.9777 7.05553 21.368 11.6497H15.787C15.4548 10.0698 14.0554 8.88072 12.3777 8.88072C10.7001 8.88072 9.30068 10.0698 8.96847 11.6497H3.50369C3.89819 7.05553 7.74762 3.45087 12.4359 3.45087ZM14.3004 11.6497C14.3834 11.8742 14.4291 12.1153 14.4291 12.369H14.4333C14.4333 12.6226 14.3876 12.8637 14.3045 13.0882C14.0138 13.8699 13.2622 14.4228 12.3819 14.4228C11.5015 14.4228 10.7499 13.8657 10.4592 13.0882C10.3762 12.8637 10.3305 12.6226 10.3305 12.369H10.3264C10.3264 12.1153 10.372 11.8742 10.4551 11.6497C10.7458 10.8681 11.4974 10.3151 12.3777 10.3151C13.2581 10.3151 14.0097 10.8722 14.3004 11.6497ZM12.3196 21.2912C7.62719 21.2912 3.77776 17.6866 3.38742 13.0924H8.96847C9.30068 14.6723 10.7001 15.8614 12.3777 15.8614C14.0554 15.8614 15.4548 14.6723 15.787 13.0924H21.2559C20.8614 17.6824 17.012 21.2912 12.3196 21.2912ZM12.3777 1.73793C6.5143 1.73793 1.75961 6.4984 1.75961 12.369C1.75961 18.2395 6.5143 23 12.3777 23C18.2412 23 23 18.2437 23 12.369C23 6.49425 18.2453 1.73793 12.3777 1.73793Z" fill="black"/>
<defs>
<clipPath id="clip0_540_1710">
<rect width="29" height="29" fill="white" transform="translate(1 1)"/>
</clipPath>
</defs>
</svg>
