<svg width="46" height="46" viewBox="0 0 46 46" fill="none" xmlns="http://www.w3.org/2000/svg">
<g clip-path="url(#clip0_19_271)">
<path d="M21.4308 34.8299L19.862 33.2611L41.8953 15.952C42.4877 15.4867 42.9714 14.5689 43.0207 13.8171L43.6875 3.63002C43.7173 3.17424 43.5559 2.73427 43.2445 2.42287C42.9331 2.11148 42.4932 1.95013 42.0374 1.97994L31.8504 2.64654C31.0985 2.69583 30.1808 3.17972 29.7155 3.77197L12.4064 25.8053L10.8376 24.2365C10.0823 23.4812 8.85322 23.4812 8.0979 24.2365L6.39332 25.9411C5.638 26.6964 5.638 27.9254 6.39332 28.6808L9.72616 32.0136L6.75024 34.9895C5.22703 34.7144 3.5976 35.1633 2.4226 36.3383C0.518507 38.2424 0.518506 41.3405 2.4226 43.2446C4.3267 45.1487 7.42483 45.1487 9.32893 43.2446C10.5039 42.0696 10.9528 40.4402 10.6777 38.917L13.6536 35.941L16.9864 39.2739C17.7418 40.0292 18.9708 40.0292 19.7261 39.2739L21.4307 37.5693C22.1862 36.8142 22.1861 35.5852 21.4308 34.8299Z" fill="#FF624E"/>
</g>
<defs>
<clipPath id="clip0_19_271">
<rect width="45.0295" height="45.0295" fill="white" transform="translate(0.318848 0.31897)"/>
</clipPath>
</defs>
</svg>
