<svg width="33" height="33" viewBox="0 0 33 33" fill="none" xmlns="http://www.w3.org/2000/svg">
<path d="M3.88203 19.2081L14.8229 29.4224C15.277 29.8462 15.8764 30.0823 16.5 30.0823C17.1236 30.0823 17.7231 29.8462 18.1772 29.4224L29.118 19.2081C30.9586 17.4946 32 15.0909 32 12.5782V12.2271C32 7.99483 28.9424 4.38623 24.7707 3.68994C22.0098 3.22979 19.2004 4.13193 17.2266 6.10576L16.5 6.83233L15.7734 6.10576C13.7996 4.13193 10.9902 3.22979 8.2293 3.68994C4.05762 4.38623 1 7.99483 1 12.2271V12.5782C1 15.0909 2.04141 17.4946 3.88203 19.2081Z" fill="#7DC94E"/>
</svg>
