<svg width="33" height="33" viewBox="0 0 33 33" fill="none" xmlns="http://www.w3.org/2000/svg">
<g clip-path="url(#clip0_19_257)">
<path d="M16.5 2C16.7606 2 17.0211 2.05664 17.259 2.16426L27.9244 6.68984C29.1705 7.2166 30.0994 8.4457 30.0938 9.92969C30.0655 15.5484 27.7545 25.8287 17.9897 30.5016C17.0438 30.9547 15.9449 30.9547 14.999 30.5016C5.24553 25.8287 2.9346 15.5484 2.90628 9.92969C2.90061 8.4457 3.82952 7.2166 5.07561 6.68984L15.7467 2.16426C15.9789 2.05664 16.2395 2 16.5 2Z" fill="#0085FF"/>
<path d="M16.7514 23.5494C15.6687 23.5494 14.6312 23.4077 13.6387 23.1241C12.6463 22.8277 11.8472 22.4474 11.2414 21.9834L12.3047 19.6248C12.8847 20.0372 13.5679 20.3788 14.3541 20.6494C15.1532 20.9072 15.9587 21.0361 16.7707 21.0361C17.3894 21.0361 17.8856 20.9781 18.2594 20.8621C18.6461 20.7332 18.9296 20.5592 19.1101 20.3401C19.2905 20.121 19.3807 19.8697 19.3807 19.5861C19.3807 19.2252 19.239 18.9417 18.9554 18.7354C18.6719 18.5163 18.2981 18.3423 17.8341 18.2134C17.3701 18.0717 16.8545 17.9428 16.2874 17.8268C15.7332 17.6979 15.1725 17.5432 14.6054 17.3628C14.0512 17.1823 13.5421 16.9503 13.0781 16.6668C12.6141 16.3832 12.2339 16.0094 11.9374 15.5454C11.6539 15.0814 11.5121 14.4886 11.5121 13.7668C11.5121 12.9934 11.7183 12.291 12.1307 11.6594C12.5561 11.015 13.1876 10.5059 14.0254 10.1321C14.8761 9.74544 15.9394 9.55211 17.2154 9.55211C18.0661 9.55211 18.9039 9.65522 19.7287 9.86144C20.5536 10.0548 21.2819 10.3512 21.9134 10.7508L20.9467 13.1288C20.3152 12.7679 19.6836 12.5037 19.0521 12.3361C18.4205 12.1557 17.8019 12.0654 17.1961 12.0654C16.5903 12.0654 16.0941 12.1363 15.7074 12.2781C15.3207 12.4199 15.0436 12.6068 14.8761 12.8388C14.7085 13.0579 14.6247 13.3157 14.6247 13.6121C14.6247 13.9601 14.7665 14.2437 15.0501 14.4628C15.3336 14.669 15.7074 14.8366 16.1714 14.9654C16.6354 15.0943 17.1445 15.2232 17.6987 15.3521C18.2659 15.481 18.8265 15.6292 19.3807 15.7968C19.9479 15.9643 20.4634 16.1899 20.9274 16.4734C21.3914 16.757 21.7652 17.1308 22.0487 17.5948C22.3452 18.0588 22.4934 18.6452 22.4934 19.3541C22.4934 20.1146 22.2807 20.8106 21.8554 21.4421C21.4301 22.0737 20.7921 22.5828 19.9414 22.9694C19.1036 23.3561 18.0403 23.5494 16.7514 23.5494Z" fill="white"/>
</g>
<defs>
<clipPath id="clip0_19_257">
<rect width="29" height="29" fill="white" transform="translate(2 2)"/>
</clipPath>
</defs>
</svg>
