<svg width="46" height="46" viewBox="0 0 46 46" fill="none" xmlns="http://www.w3.org/2000/svg">
<g clip-path="url(#clip0_19_288)">
<path d="M21.33 34.7903L19.8127 33.273L41.1224 16.5324C41.6954 16.0823 42.1632 15.1947 42.2109 14.4676L42.8558 4.61507C42.8846 4.17426 42.7285 3.74873 42.4273 3.44757C42.1261 3.1464 41.7007 2.99034 41.2599 3.01918L31.4073 3.66389C30.6802 3.71156 29.7926 4.17955 29.3426 4.75236L12.6019 26.0621L11.0846 24.5448C10.3541 23.8143 9.16543 23.8143 8.43492 24.5448L6.78632 26.1934C6.0558 26.9239 6.0558 28.1126 6.78632 28.8431L10.0097 32.0665L7.13151 34.9447C5.65833 34.6786 4.08241 35.1128 2.946 36.2492C1.10443 38.0907 1.10443 41.0871 2.946 42.9287C4.78757 44.7703 7.78395 44.7703 9.62552 42.9287C10.7619 41.7923 11.1961 40.2164 10.93 38.7432L13.8082 35.865L17.0316 39.0884C17.7621 39.8189 18.9508 39.8189 19.6813 39.0884L21.3299 37.4398C22.0606 36.7094 22.0605 35.5208 21.33 34.7903Z" fill="#FF624E"/>
<mask id="path-2-outside-1_19_288" maskUnits="userSpaceOnUse" x="12.9362" y="9.59925" width="19.4752" height="23.391" fill="black">
<rect fill="white" x="12.9362" y="9.59925" width="19.4752" height="23.391"/>
<path d="M22.917 31.1192C21.3897 31.151 19.9219 30.9815 18.5135 30.6107C17.1047 30.2217 15.9663 29.7088 15.0981 29.072L16.5287 25.7134C17.3591 26.2782 18.3328 26.7399 19.4498 27.0987C20.5847 27.4388 21.7249 27.5969 22.8704 27.5731C23.7431 27.5549 24.4414 27.4585 24.9653 27.2838C25.507 27.0906 25.9019 26.8368 26.15 26.5224C26.3981 26.208 26.518 25.8508 26.5096 25.4508C26.499 24.9417 26.2907 24.5459 25.8846 24.2633C25.4781 23.9625 24.9457 23.7281 24.2874 23.5599C23.6287 23.3735 22.8976 23.2069 22.0942 23.0599C21.3085 22.8944 20.5131 22.6927 19.7077 22.4548C18.9206 22.2166 18.1956 21.9042 17.5327 21.5179C16.8698 21.1315 16.3224 20.6154 15.8906 19.9696C15.4769 19.3233 15.2595 18.4911 15.2383 17.4729C15.2155 16.382 15.4858 15.385 16.049 14.482C16.6301 13.5603 17.5061 12.8236 18.6769 12.2717C19.8656 11.7012 21.3599 11.3972 23.16 11.3596C24.36 11.3346 25.5449 11.4555 26.7146 11.7221C27.8839 11.9706 28.9199 12.3674 29.8226 12.9124L28.5289 16.2955C27.6273 15.805 26.7286 15.4508 25.8328 15.233C24.9366 14.997 24.0612 14.8879 23.2066 14.9057C22.352 14.9236 21.6541 15.0382 21.1128 15.2495C20.5715 15.4609 20.1861 15.7327 19.9565 16.0649C19.7266 16.3789 19.616 16.745 19.6247 17.1632C19.635 17.6541 19.8433 18.05 20.2497 18.3507C20.6558 18.6333 21.188 18.8587 21.8464 19.0269C22.5047 19.195 23.2267 19.3619 24.0123 19.5274C24.8161 19.6926 25.6114 19.8852 26.3982 20.1052C27.2031 20.3249 27.9371 20.628 28.6 21.0143C29.2628 21.4007 29.8011 21.917 30.2148 22.5632C30.6466 23.2091 30.873 24.032 30.8938 25.032C30.9162 26.1048 30.6366 27.0928 30.0552 27.9963C29.4737 28.8997 28.5887 29.6367 27.4 30.2072C26.2296 30.7773 24.7352 31.0813 22.917 31.1192Z"/>
</mask>
<path d="M22.917 31.1192C21.3897 31.151 19.9219 30.9815 18.5135 30.6107C17.1047 30.2217 15.9663 29.7088 15.0981 29.072L16.5287 25.7134C17.3591 26.2782 18.3328 26.7399 19.4498 27.0987C20.5847 27.4388 21.7249 27.5969 22.8704 27.5731C23.7431 27.5549 24.4414 27.4585 24.9653 27.2838C25.507 27.0906 25.9019 26.8368 26.15 26.5224C26.3981 26.208 26.518 25.8508 26.5096 25.4508C26.499 24.9417 26.2907 24.5459 25.8846 24.2633C25.4781 23.9625 24.9457 23.7281 24.2874 23.5599C23.6287 23.3735 22.8976 23.2069 22.0942 23.0599C21.3085 22.8944 20.5131 22.6927 19.7077 22.4548C18.9206 22.2166 18.1956 21.9042 17.5327 21.5179C16.8698 21.1315 16.3224 20.6154 15.8906 19.9696C15.4769 19.3233 15.2595 18.4911 15.2383 17.4729C15.2155 16.382 15.4858 15.385 16.049 14.482C16.6301 13.5603 17.5061 12.8236 18.6769 12.2717C19.8656 11.7012 21.3599 11.3972 23.16 11.3596C24.36 11.3346 25.5449 11.4555 26.7146 11.7221C27.8839 11.9706 28.9199 12.3674 29.8226 12.9124L28.5289 16.2955C27.6273 15.805 26.7286 15.4508 25.8328 15.233C24.9366 14.997 24.0612 14.8879 23.2066 14.9057C22.352 14.9236 21.6541 15.0382 21.1128 15.2495C20.5715 15.4609 20.1861 15.7327 19.9565 16.0649C19.7266 16.3789 19.616 16.745 19.6247 17.1632C19.635 17.6541 19.8433 18.05 20.2497 18.3507C20.6558 18.6333 21.188 18.8587 21.8464 19.0269C22.5047 19.195 23.2267 19.3619 24.0123 19.5274C24.8161 19.6926 25.6114 19.8852 26.3982 20.1052C27.2031 20.3249 27.9371 20.628 28.6 21.0143C29.2628 21.4007 29.8011 21.917 30.2148 22.5632C30.6466 23.2091 30.873 24.032 30.8938 25.032C30.9162 26.1048 30.6366 27.0928 30.0552 27.9963C29.4737 28.8997 28.5887 29.6367 27.4 30.2072C26.2296 30.7773 24.7352 31.0813 22.917 31.1192Z" fill="white"/>
<path d="M18.5135 30.6107L18.1834 31.8059L18.1906 31.8079L18.1978 31.8098L18.5135 30.6107ZM15.0981 29.072L13.9573 28.5861L13.572 29.4905L14.3647 30.0719L15.0981 29.072ZM16.5287 25.7134L17.2261 24.6882L15.979 23.8399L15.388 25.2275L16.5287 25.7134ZM19.4498 27.0987L19.0707 28.2792L19.0822 28.2829L19.0938 28.2864L19.4498 27.0987ZM24.9653 27.2838L25.3574 28.4602L25.3697 28.4561L25.3818 28.4517L24.9653 27.2838ZM26.15 26.5224L25.1766 25.7543L25.1766 25.7543L26.15 26.5224ZM25.8846 24.2633L25.147 25.26L25.1615 25.2708L25.1763 25.2811L25.8846 24.2633ZM24.2874 23.5599L23.9498 24.753L23.9651 24.7573L23.9805 24.7613L24.2874 23.5599ZM22.0942 23.0599L21.8385 24.2732L21.8547 24.2766L21.871 24.2796L22.0942 23.0599ZM19.7077 22.4548L19.3485 23.6416L19.3565 23.644L19.7077 22.4548ZM17.5327 21.5179L16.9083 22.5892L16.9083 22.5892L17.5327 21.5179ZM15.8906 19.9696L14.8463 20.6381L14.8529 20.6485L14.8598 20.6588L15.8906 19.9696ZM16.049 14.482L15.0001 13.8206L14.997 13.8257L16.049 14.482ZM18.6769 12.2717L19.2056 13.3933L19.2134 13.3895L18.6769 12.2717ZM26.7146 11.7221L26.439 12.9311L26.4479 12.9331L26.4569 12.935L26.7146 11.7221ZM29.8226 12.9124L30.9808 13.3553L31.3511 12.3869L30.4636 11.851L29.8226 12.9124ZM28.5289 16.2955L27.9363 17.3847L29.1809 18.0619L29.687 16.7384L28.5289 16.2955ZM25.8328 15.233L25.5171 16.4321L25.5284 16.4351L25.5399 16.4379L25.8328 15.233ZM21.1128 15.2495L20.6618 14.0945L20.6618 14.0945L21.1128 15.2495ZM19.9565 16.0649L20.957 16.7974L20.967 16.7837L20.9767 16.7698L19.9565 16.0649ZM20.2497 18.3507L19.5122 19.3475L19.5267 19.3582L19.5415 19.3685L20.2497 18.3507ZM21.8464 19.0269L21.5395 20.2283L21.5395 20.2283L21.8464 19.0269ZM24.0123 19.5274L23.7567 20.7408L23.7628 20.742L24.0123 19.5274ZM26.3982 20.1052L26.0642 21.2994L26.0717 21.3015L26.3982 20.1052ZM28.6 21.0143L29.2243 19.943L29.2243 19.943L28.6 21.0143ZM30.2148 22.5632L29.1704 23.2317L29.1771 23.2421L29.184 23.2524L30.2148 22.5632ZM30.0552 27.9963L31.0979 28.6673L31.0979 28.6673L30.0552 27.9963ZM27.4 30.2072L26.8635 29.0892L26.8571 29.0924L27.4 30.2072ZM22.917 31.1192L22.8912 29.8795C21.4734 29.909 20.1208 29.7517 18.8292 29.4116L18.5135 30.6107L18.1978 31.8098C19.7229 32.2113 21.306 32.393 22.9428 32.3588L22.917 31.1192ZM18.5135 30.6107L18.8435 29.4154C17.5314 29.0531 16.5433 28.5943 15.8314 28.0722L15.0981 29.072L14.3647 30.0719C15.3893 30.8233 16.6781 31.3902 18.1834 31.8059L18.5135 30.6107ZM15.0981 29.072L16.2388 29.558L17.6695 26.1994L16.5287 25.7134L15.388 25.2275L13.9573 28.5861L15.0981 29.072ZM16.5287 25.7134L15.8314 26.7387C16.7747 27.3803 17.8592 27.8902 19.0707 28.2792L19.4498 27.0987L19.8289 25.9181C18.8063 25.5897 17.9435 25.1761 17.2261 24.6882L16.5287 25.7134ZM19.4498 27.0987L19.0938 28.2864C20.3482 28.6624 21.6171 28.8394 22.8962 28.8128L22.8704 27.5731L22.8445 26.3334C21.8326 26.3545 20.8212 26.2152 19.8058 25.9109L19.4498 27.0987ZM22.8704 27.5731L22.8962 28.8128C23.8301 28.7933 24.6673 28.6902 25.3574 28.4602L24.9653 27.2838L24.5732 26.1075C24.2155 26.2267 23.6561 26.3164 22.8445 26.3334L22.8704 27.5731ZM24.9653 27.2838L25.3818 28.4517C26.0523 28.2126 26.681 27.8511 27.1234 27.2906L26.15 26.5224L25.1766 25.7543C25.1227 25.8226 24.9617 25.9686 24.5487 26.1159L24.9653 27.2838ZM26.15 26.5224L27.1234 27.2906C27.5494 26.7507 27.7637 26.1128 27.7493 25.425L26.5096 25.4508L25.2699 25.4767C25.2723 25.5888 25.2467 25.6654 25.1766 25.7543L26.15 26.5224ZM26.5096 25.4508L27.7493 25.425C27.7307 24.533 27.3357 23.7624 26.5928 23.2455L25.8846 24.2633L25.1763 25.2811C25.2339 25.3211 25.246 25.3455 25.2481 25.3496C25.251 25.355 25.2681 25.3878 25.2699 25.4767L26.5096 25.4508ZM25.8846 24.2633L26.6222 23.2665C26.0507 22.8437 25.3577 22.5535 24.5943 22.3585L24.2874 23.5599L23.9805 24.7613C24.5337 24.9026 24.9056 25.0814 25.147 25.26L25.8846 24.2633ZM24.2874 23.5599L24.6249 22.3668C23.9222 22.1679 23.1521 21.9929 22.3173 21.8402L22.0942 23.0599L21.871 24.2796C22.643 24.4208 23.3352 24.5791 23.9498 24.753L24.2874 23.5599ZM22.0942 23.0599L22.3498 21.8466C21.5978 21.6881 20.8342 21.4946 20.059 21.2656L19.7077 22.4548L19.3565 23.644C20.1919 23.8907 21.0193 24.1006 21.8385 24.2732L22.0942 23.0599ZM19.7077 22.4548L20.067 21.268C19.3658 21.0558 18.7306 20.7809 18.1571 20.4466L17.5327 21.5179L16.9083 22.5892C17.6605 23.0276 18.4754 23.3773 19.3485 23.6416L19.7077 22.4548ZM17.5327 21.5179L18.1571 20.4466C17.659 20.1563 17.2499 19.7717 16.9214 19.2804L15.8906 19.9696L14.8598 20.6588C15.395 21.4592 16.0806 22.1067 16.9083 22.5892L17.5327 21.5179ZM15.8906 19.9696L16.9349 19.3011C16.6783 18.9002 16.4959 18.3099 16.478 17.4471L15.2383 17.4729L13.9986 17.4988C14.023 18.6724 14.2756 19.7465 14.8463 20.6381L15.8906 19.9696ZM15.2383 17.4729L16.478 17.4471C16.4601 16.5905 16.6687 15.8315 17.1011 15.1382L16.049 14.482L14.997 13.8257C14.3029 14.9385 13.971 16.1735 13.9986 17.4988L15.2383 17.4729ZM16.049 14.482L17.0979 15.1433C17.531 14.4565 18.2077 13.8636 19.2056 13.3932L18.6769 12.2717L18.1482 11.1501C16.8044 11.7835 15.7293 12.6642 15.0002 13.8206L16.049 14.482ZM18.6769 12.2717L19.2134 13.3895C20.1954 12.9182 21.5018 12.6344 23.1858 12.5993L23.16 11.3596L23.1341 10.12C21.2181 10.1599 19.5357 10.4841 18.1404 11.1538L18.6769 12.2717ZM23.16 11.3596L23.1858 12.5993C24.2845 12.5764 25.3681 12.6869 26.439 12.9311L26.7146 11.7221L26.9902 10.5132C25.7216 10.224 24.4355 10.0928 23.1341 10.12L23.16 11.3596ZM26.7146 11.7221L26.4569 12.935C27.5088 13.1585 28.4121 13.5092 29.1817 13.9739L29.8226 12.9124L30.4636 11.851C29.4278 11.2256 28.2591 10.7827 26.9723 10.5092L26.7146 11.7221ZM29.8226 12.9124L28.6644 12.4695L27.3707 15.8526L28.5289 16.2955L29.687 16.7384L30.9808 13.3553L29.8226 12.9124ZM28.5289 16.2955L29.1215 15.2063C28.136 14.6701 27.1371 14.274 26.1257 14.0281L25.8328 15.233L25.5399 16.4379C26.3202 16.6276 27.1186 16.9398 27.9363 17.3847L28.5289 16.2955ZM25.8328 15.233L26.1485 14.0339C25.1502 13.771 24.1598 13.6456 23.1807 13.666L23.2066 14.9057L23.2324 16.1454C23.9625 16.1302 24.7229 16.223 25.5171 16.4321L25.8328 15.233ZM23.2066 14.9057L23.1807 13.666C22.2428 13.6856 21.3866 13.8115 20.6618 14.0945L21.1128 15.2495L21.5638 16.4045C21.9216 16.2648 22.4613 16.1615 23.2324 16.1454L23.2066 14.9057ZM21.1128 15.2495L20.6618 14.0945C19.9867 14.3581 19.3557 14.7532 18.9364 15.36L19.9565 16.0649L20.9767 16.7698C21.0164 16.7122 21.1563 16.5637 21.5638 16.4045L21.1128 15.2495ZM19.9565 16.0649L18.9561 15.3324C18.553 15.8829 18.3711 16.5203 18.385 17.1891L19.6247 17.1632L20.8644 17.1374C20.8609 16.9697 20.9003 16.8749 20.957 16.7974L19.9565 16.0649ZM19.6247 17.1632L18.385 17.1891C18.4035 18.0771 18.8078 18.8262 19.5122 19.3475L20.2497 18.3507L20.9873 17.354C20.9143 17.3 20.8925 17.2633 20.8859 17.2508C20.8799 17.2393 20.8659 17.2095 20.8644 17.1374L19.6247 17.1632ZM20.2497 18.3507L19.5415 19.3685C20.1054 19.761 20.7874 20.0361 21.5395 20.2283L21.8464 19.0269L22.1533 17.8255C21.5887 17.6813 21.2062 17.5057 20.958 17.333L20.2497 18.3507ZM21.8464 19.0269L21.5395 20.2283C22.2175 20.4015 22.9569 20.5722 23.7567 20.7407L24.0123 19.5274L24.268 18.3141C23.4965 18.1516 22.7919 17.9886 22.1533 17.8255L21.8464 19.0269ZM24.0123 19.5274L23.7628 20.742C24.5383 20.9014 25.3054 21.0871 26.0642 21.2994L26.3982 20.1052L26.7322 18.9111C25.9174 18.6832 25.094 18.4838 24.2619 18.3128L24.0123 19.5274ZM26.3982 20.1052L26.0717 21.3015C26.7814 21.4951 27.4139 21.7582 27.9756 22.0856L28.6 21.0143L29.2243 19.943C28.4603 19.4977 27.6249 19.1547 26.7247 18.909L26.3982 20.1052ZM28.6 21.0143L27.9756 22.0856C28.4685 22.3729 28.8628 22.7512 29.1704 23.2317L30.2148 22.5632L31.2591 21.8947C30.7394 21.0828 30.0572 20.4285 29.2243 19.943L28.6 21.0143ZM30.2148 22.5632L29.184 23.2524C29.4514 23.6524 29.6368 24.2272 29.6541 25.0578L30.8938 25.032L32.1335 25.0062C32.1091 23.8368 31.8418 22.7657 31.2456 21.874L30.2148 22.5632ZM30.8938 25.032L29.6541 25.0578C29.6713 25.8835 29.4606 26.629 29.0125 27.3252L30.0552 27.9963L31.0979 28.6673C31.8127 27.5567 32.161 26.326 32.1335 25.0062L30.8938 25.032ZM30.0552 27.9963L29.0125 27.3252C28.5807 27.9962 27.8923 28.5955 26.8635 29.0893L27.4 30.2072L27.9365 31.325C29.285 30.6778 30.3668 29.8032 31.0979 28.6673L30.0552 27.9963ZM27.4 30.2072L26.8571 29.0924C25.8986 29.5592 24.5966 29.8439 22.8912 29.8795L22.917 31.1192L22.9428 32.3588C24.8738 32.3186 26.5605 31.9953 27.943 31.3219L27.4 30.2072Z" fill="#FF624E" mask="url(#path-2-outside-1_19_288)"/>
</g>
<defs>
<clipPath id="clip0_19_288">
<rect width="45.0295" height="45.0295" fill="white" transform="translate(0.318848 0.31897)"/>
</clipPath>
</defs>
</svg>
